<svg xmlns="http://www.w3.org/2000/svg" width="140" height="375" viewBox="0 0 170 351">
  <g id="Group_21" data-name="Group 21" transform="translate(-1542 -702)">
    <path id="Path_3" data-name="Path 3" d="M1080.526,968.082a534.991,534.991,0,0,1-170,0,534.825,534.825,0,0,1,170,0Z" transform="translate(631.474 78.122)" fill="#d3d3d3" opacity="0.5"/>
    <g id="Group_20" data-name="Group 20" transform="translate(631.474 78.122)">
      <g id="Group_18" data-name="Group 18">
        <g id="Group_8" data-name="Group 8">
          <g id="Group_6" data-name="Group 6">
            <path id="Path_4" data-name="Path 4" d="M976.842,772.387c17.211,17.219,14.167,48.166,14.167,48.166s-30.943,3.059-48.151-14.162S928.7,758.209,928.7,758.209,959.631,755.166,976.842,772.387Z" fill="#00de91"/>
            <path id="Path_5" data-name="Path 5" d="M928.7,758.209l62.3,62.343s-30.943,3.059-48.151-14.162S928.7,758.209,928.7,758.209Z" fill="#00c685"/>
          </g>
          <g id="Group_7" data-name="Group 7">
            <path id="Path_6" data-name="Path 6" d="M1012.127,772.387c-17.211,17.219-14.167,48.166-14.167,48.166s30.943,3.059,48.153-14.162,14.151-48.182,14.151-48.182S1029.337,755.166,1012.127,772.387Z" fill="#00de91"/>
            <path id="Path_7" data-name="Path 7" d="M1060.264,758.209l-62.3,62.343s30.943,3.059,48.153-14.162S1060.264,758.209,1060.264,758.209Z" fill="#00c685"/>
          </g>
        </g>
        <g id="Group_11" data-name="Group 11">
          <g id="Group_9" data-name="Group 9">
            <path id="Path_8" data-name="Path 8" d="M979.964,712.263c14.167,14.175,11.662,39.648,11.662,39.648s-25.471,2.518-39.638-11.657-11.648-39.659-11.648-39.659S965.8,698.088,979.964,712.263Z" fill="#00de91"/>
            <path id="Path_9" data-name="Path 9" d="M940.339,700.594l51.286,51.317s-25.471,2.518-39.638-11.657S940.339,700.594,940.339,700.594Z" fill="#00c685"/>
          </g>
          <g id="Group_10" data-name="Group 10">
            <path id="Path_10" data-name="Path 10" d="M1009.007,712.263c-14.167,14.175-11.662,39.648-11.662,39.648s25.469,2.518,39.636-11.657,11.648-39.659,11.648-39.659S1023.174,698.088,1009.007,712.263Z" fill="#00de91"/>
            <path id="Path_11" data-name="Path 11" d="M1048.629,700.594l-51.284,51.317s25.469,2.518,39.636-11.657S1048.629,700.594,1048.629,700.594Z" fill="#00c685"/>
          </g>
        </g>
        <g id="Group_14" data-name="Group 14">
          <g id="Group_12" data-name="Group 12">
            <path id="Path_12" data-name="Path 12" d="M983.915,664.452c10.31,10.319,8.487,28.861,8.487,28.861s-18.538,1.832-28.85-8.485-8.478-28.867-8.478-28.867S973.6,654.135,983.915,664.452Z" fill="#00de91"/>
            <path id="Path_13" data-name="Path 13" d="M955.074,655.96,992.4,693.313s-18.538,1.832-28.85-8.485S955.074,655.96,955.074,655.96Z" fill="#00c685"/>
          </g>
          <g id="Group_13" data-name="Group 13">
            <path id="Path_14" data-name="Path 14" d="M1005.055,664.452c-10.313,10.319-8.489,28.861-8.489,28.861s18.54,1.832,28.85-8.485,8.48-28.867,8.48-28.867S1015.366,654.135,1005.055,664.452Z" fill="#00de91"/>
            <path id="Path_15" data-name="Path 15" d="M1033.9,655.96l-37.33,37.352s18.54,1.832,28.85-8.485S1033.9,655.96,1033.9,655.96Z" fill="#00c685"/>
          </g>
        </g>
        <rect id="Rectangle_11" data-name="Rectangle 11" width="6.95" height="213.488" transform="translate(991.01 648.555)" fill="#00c685"/>
        <g id="Group_17" data-name="Group 17">
          <g id="Group_15" data-name="Group 15">
            <path id="Path_16" data-name="Path 16" d="M988.311,630.108c7.453,7.459,6.135,20.862,6.135,20.862s-13.4,1.325-20.856-6.132-6.13-20.871-6.13-20.871S980.856,622.649,988.311,630.108Z" fill="#00de91"/>
            <path id="Path_17" data-name="Path 17" d="M967.459,623.967l26.987,27s-13.4,1.325-20.856-6.132S967.459,623.967,967.459,623.967Z" fill="#00c685"/>
          </g>
          <g id="Group_16" data-name="Group 16">
            <path id="Path_18" data-name="Path 18" d="M1000.66,630.108c-7.455,7.459-6.137,20.862-6.137,20.862s13.4,1.325,20.856-6.132,6.13-20.871,6.13-20.871S1008.115,622.649,1000.66,630.108Z" fill="#00de91"/>
            <path id="Path_19" data-name="Path 19" d="M1021.51,623.967l-26.987,27s13.4,1.325,20.856-6.132S1021.51,623.967,1021.51,623.967Z" fill="#00c685"/>
          </g>
        </g>
      </g>
      <g id="Group_19" data-name="Group 19">
        <path id="Path_20" data-name="Path 20" d="M1032.849,968.452H956.121l-17.454-96.09H1050.3Z" fill="#3b4182"/>
        <rect id="Rectangle_12" data-name="Rectangle 12" width="137.44" height="25.399" transform="translate(925.765 859.662)" fill="#444a97"/>
      </g>
    </g>
  </g>
</svg>
